# xmcd
#
# Track frame offsets:
#	150
#	13459
#	28648
#	41668
#	56479
#	69495
#	84736
#	97799
#	112880
#	131329
#	147349
#	164831
#
# Disc length: 2434 seconds
# Revision: 0
# Processed by: cddbd v1.5.2PL0 Copyright (c) Steve Scherf et al.
# Submitted via: dBpowerAMP V12.0
#
DISCID=a209800c
DTITLE=Joey and Rory - Album Number Two
DYEAR=2010
DGENRE=Country
TTITLE0=Album Number Two
TTITLE1=That's Important To Me
TTITLE2=All You Need Is Me
TTITLE3=Born To Be Your Woman
TTITLE4=Baby I'll Come Back To You
TTITLE5=God Help My Man
TTITLE6=The Horse Nobody Could Ride
TTITLE7=Farm To Fame
TTITLE8=Where Jesus Is
TTITLE9=You Ain't Right
TTITLE10=My Ol' Man
TTITLE11=This Song's For You (with Zac Brown Band)
EXTD=
EXTT0=
EXTT1=
EXTT2=
EXTT3=
EXTT4=
EXTT5=
EXTT6=
EXTT7=
EXTT8=
EXTT9=
EXTT10=
EXTT11=
PLAYORDER=
